<svg width="23" height="22" viewBox="0 0 23 22" fill="none" xmlns="http://www.w3.org/2000/svg">
<mask id="path-1-outside-1" maskUnits="userSpaceOnUse" x="0.0484619" y="0.200928" width="23" height="21" fill="black">
<rect fill="white" x="0.0484619" y="0.200928" width="23" height="21"/>
<path fill-rule="evenodd" clip-rule="evenodd" d="M2.53596 13.5359C1.71063 10.4557 2.43258 7.18224 4.46639 4.73402L1.41032 5.25902C1.24267 5.28684 1.08285 5.17478 1.05278 5.00611C1.02464 4.83764 1.13696 4.67726 1.30568 4.64857L5.21383 3.97731C5.27493 3.96701 5.33758 3.97577 5.39336 4.00112C5.41083 4.00906 5.42809 4.01894 5.44402 4.03026C5.51087 4.07764 5.5562 4.14991 5.57055 4.23053L6.24124 8.13841C6.26937 8.30688 6.15706 8.46726 5.98833 8.49596C5.82069 8.52378 5.65974 8.41121 5.63079 8.24305L5.07109 4.97761C3.06739 7.28696 2.34333 10.4257 3.13378 13.3757C4.44377 18.2647 9.48679 21.1763 14.3758 19.8663C19.2648 18.5563 22.1763 13.5132 20.8663 8.62426C19.5563 3.73529 14.5127 0.823859 9.62434 2.1337C9.45935 2.17791 9.28955 2.07988 9.24534 1.91488C9.20113 1.74988 9.29916 1.58009 9.46416 1.53588C14.6825 0.137616 20.0659 3.2457 21.4642 8.46408C22.8624 13.6825 19.7543 19.0658 14.536 20.4641C9.31758 21.8623 3.93422 18.7543 2.53596 13.5359ZM14.7439 14.918C14.8052 14.9916 14.8931 15.03 14.9822 15.03C15.0515 15.03 15.1221 15.0065 15.1803 14.9588C15.3109 14.8499 15.33 14.6549 15.2205 14.5231L12.3351 11.0386V5.21593C12.3351 5.04511 12.1965 4.90647 12.0257 4.90647C11.8549 4.90647 11.7162 5.04511 11.7162 5.21593V11.1494C11.7162 11.2212 11.7416 11.2911 11.7874 11.3468L14.7439 14.918Z"/>
</mask>
<path fill-rule="evenodd" clip-rule="evenodd" d="M2.53596 13.5359C1.71063 10.4557 2.43258 7.18224 4.46639 4.73402L1.41032 5.25902C1.24267 5.28684 1.08285 5.17478 1.05278 5.00611C1.02464 4.83764 1.13696 4.67726 1.30568 4.64857L5.21383 3.97731C5.27493 3.96701 5.33758 3.97577 5.39336 4.00112C5.41083 4.00906 5.42809 4.01894 5.44402 4.03026C5.51087 4.07764 5.5562 4.14991 5.57055 4.23053L6.24124 8.13841C6.26937 8.30688 6.15706 8.46726 5.98833 8.49596C5.82069 8.52378 5.65974 8.41121 5.63079 8.24305L5.07109 4.97761C3.06739 7.28696 2.34333 10.4257 3.13378 13.3757C4.44377 18.2647 9.48679 21.1763 14.3758 19.8663C19.2648 18.5563 22.1763 13.5132 20.8663 8.62426C19.5563 3.73529 14.5127 0.823859 9.62434 2.1337C9.45935 2.17791 9.28955 2.07988 9.24534 1.91488C9.20113 1.74988 9.29916 1.58009 9.46416 1.53588C14.6825 0.137616 20.0659 3.2457 21.4642 8.46408C22.8624 13.6825 19.7543 19.0658 14.536 20.4641C9.31758 21.8623 3.93422 18.7543 2.53596 13.5359ZM14.7439 14.918C14.8052 14.9916 14.8931 15.03 14.9822 15.03C15.0515 15.03 15.1221 15.0065 15.1803 14.9588C15.3109 14.8499 15.33 14.6549 15.2205 14.5231L12.3351 11.0386V5.21593C12.3351 5.04511 12.1965 4.90647 12.0257 4.90647C11.8549 4.90647 11.7162 5.04511 11.7162 5.21593V11.1494C11.7162 11.2212 11.7416 11.2911 11.7874 11.3468L14.7439 14.918Z" fill="#8190AE"/>
<path d="M4.46639 4.73402L4.65869 4.89377L5.09131 4.373L4.42407 4.48763L4.46639 4.73402ZM2.53596 13.5359L2.77744 13.4712L2.77744 13.4712L2.53596 13.5359ZM1.41032 5.25902L1.45125 5.50565L1.45265 5.50541L1.41032 5.25902ZM1.05278 5.00611L0.806176 5.04729L0.806659 5.05L1.05278 5.00611ZM1.30568 4.64857L1.3476 4.89503L1.348 4.89496L1.30568 4.64857ZM5.21383 3.97731L5.17228 3.73079L5.17151 3.73092L5.21383 3.97731ZM5.39336 4.00112L5.4968 3.77352L5.4968 3.77352L5.39336 4.00112ZM5.44402 4.03026L5.29922 4.23406L5.29946 4.23423L5.44402 4.03026ZM5.57055 4.23053L5.81695 4.18824L5.81668 4.18673L5.57055 4.23053ZM6.24124 8.13841L6.48783 8.09724L6.48764 8.09613L6.24124 8.13841ZM5.98833 8.49596L6.02927 8.74258L6.03025 8.74242L5.98833 8.49596ZM5.63079 8.24305L5.38439 8.28528L5.38442 8.28547L5.63079 8.24305ZM5.07109 4.97761L5.3175 4.93538L5.2283 4.41495L4.88226 4.81377L5.07109 4.97761ZM3.13378 13.3757L3.37526 13.311L3.37526 13.311L3.13378 13.3757ZM14.3758 19.8663L14.3111 19.6248L14.3111 19.6248L14.3758 19.8663ZM20.8663 8.62426L21.1078 8.55956L21.1078 8.55956L20.8663 8.62426ZM9.62434 2.1337L9.55964 1.89221L9.55964 1.89221L9.62434 2.1337ZM9.24534 1.91488L9.00386 1.97958L9.00386 1.97958L9.24534 1.91488ZM9.46416 1.53588L9.39945 1.29439L9.39945 1.29439L9.46416 1.53588ZM14.536 20.4641L14.4713 20.2226L14.4713 20.2226L14.536 20.4641ZM14.7439 14.918L14.5514 15.0774L14.5517 15.0778L14.7439 14.918ZM15.1803 14.9588L15.3387 15.1522L15.3404 15.1508L15.1803 14.9588ZM15.2205 14.5231L15.0279 14.6825L15.0282 14.6829L15.2205 14.5231ZM12.3351 11.0386H12.0851V11.1287L12.1426 11.1981L12.3351 11.0386ZM11.7874 11.3468L11.5943 11.5056L11.5948 11.5063L11.7874 11.3468ZM4.27409 4.57427C2.18856 7.08475 1.4481 10.4419 2.29447 13.6006L2.77744 13.4712C1.97316 10.4696 2.6766 7.27974 4.65869 4.89377L4.27409 4.57427ZM1.45265 5.50541L4.50872 4.98041L4.42407 4.48763L1.36799 5.01263L1.45265 5.50541ZM0.806659 5.05C0.860816 5.3537 1.14881 5.55584 1.45125 5.50564L1.36939 5.01239C1.33654 5.01784 1.30489 4.99586 1.29889 4.96222L0.806659 5.05ZM1.26377 4.40211C0.957252 4.45424 0.755696 4.7449 0.806191 5.04729L1.29936 4.96493C1.29359 4.93039 1.31667 4.90029 1.3476 4.89503L1.26377 4.40211ZM5.17151 3.73092L1.26336 4.40218L1.348 4.89496L5.25615 4.2237L5.17151 3.73092ZM5.4968 3.77352C5.39688 3.72811 5.28383 3.71199 5.17228 3.73079L5.25538 4.22384C5.26603 4.22204 5.27827 4.22342 5.28992 4.22872L5.4968 3.77352ZM5.58882 3.82646C5.55972 3.80579 5.52859 3.78797 5.4968 3.77352L5.28992 4.22872C5.29307 4.23014 5.29646 4.23209 5.29922 4.23406L5.58882 3.82646ZM5.81668 4.18673C5.79099 4.04235 5.70975 3.91217 5.58858 3.82629L5.29946 4.23423C5.31198 4.2431 5.32141 4.25746 5.32442 4.27433L5.81668 4.18673ZM6.48764 8.09613L5.81695 4.18824L5.32415 4.27281L5.99485 8.1807L6.48764 8.09613ZM6.03025 8.74242C6.33677 8.69029 6.53832 8.39962 6.48783 8.09724L5.99466 8.17959C6.00043 8.21413 5.97734 8.24423 5.94642 8.24949L6.03025 8.74242ZM5.38442 8.28547C5.43701 8.59092 5.72781 8.79262 6.02927 8.74258L5.9474 8.24933C5.91357 8.25494 5.88248 8.23149 5.87717 8.20063L5.38442 8.28547ZM4.82468 5.01985L5.38439 8.28528L5.8772 8.20081L5.3175 4.93538L4.82468 5.01985ZM3.37526 13.311C2.60632 10.4413 3.31056 7.38817 5.25992 5.14145L4.88226 4.81377C2.82422 7.18575 2.08033 10.4101 2.89229 13.4404L3.37526 13.311ZM14.3111 19.6248C9.55545 20.899 4.64952 18.0666 3.37526 13.311L2.89229 13.4404C4.23803 18.4627 9.41813 21.4535 14.4405 20.1077L14.3111 19.6248ZM20.6249 8.68897C21.8991 13.4446 19.0667 18.3505 14.3111 19.6248L14.4405 20.1077C19.4628 18.762 22.4536 13.5819 21.1078 8.55956L20.6249 8.68897ZM9.68905 2.37518C14.4441 1.10107 19.3506 3.93337 20.6249 8.68897L21.1078 8.55956C19.7621 3.5372 14.5814 0.546645 9.55964 1.89221L9.68905 2.37518ZM9.00386 1.97958C9.08381 2.27795 9.39069 2.45512 9.68905 2.37518L9.55964 1.89221C9.52801 1.90069 9.4953 1.88181 9.48682 1.85017L9.00386 1.97958ZM9.39945 1.29439C9.10109 1.37434 8.92391 1.68122 9.00386 1.97958L9.48682 1.85018C9.47835 1.81854 9.49723 1.78583 9.52886 1.77736L9.39945 1.29439ZM21.7056 8.39937C20.2716 3.04763 14.7512 -0.139601 9.39945 1.29439L9.52886 1.77736C14.6139 0.414832 19.8602 3.44377 21.2227 8.52878L21.7056 8.39937ZM14.6007 20.7056C19.9524 19.2716 23.1396 13.7511 21.7056 8.39937L21.2227 8.52878C22.5852 13.6138 19.5563 18.8601 14.4713 20.2226L14.6007 20.7056ZM2.29447 13.6006C3.72847 18.9523 9.24892 22.1396 14.6007 20.7056L14.4713 20.2226C9.38624 21.5851 4.13996 18.5562 2.77744 13.4712L2.29447 13.6006ZM14.9822 14.78C14.965 14.78 14.9484 14.7728 14.9361 14.7581L14.5517 15.0778C14.662 15.2104 14.8212 15.28 14.9822 15.28V14.78ZM15.0218 14.7654C15.0095 14.7755 14.9953 14.78 14.9822 14.78V15.28C15.1078 15.28 15.2347 15.2374 15.3387 15.1522L15.0218 14.7654ZM15.0282 14.6829C15.0488 14.7076 15.0458 14.7454 15.0201 14.7668L15.3404 15.1508C15.5759 14.9544 15.6113 14.6022 15.4128 14.3633L15.0282 14.6829ZM12.1426 11.1981L15.0279 14.6825L15.413 14.3636L12.5277 10.8792L12.1426 11.1981ZM12.0851 5.21593V11.0386H12.5851V5.21593H12.0851ZM12.0257 5.15647C12.0584 5.15647 12.0851 5.18318 12.0851 5.21593H12.5851C12.5851 4.90704 12.3346 4.65647 12.0257 4.65647V5.15647ZM11.9662 5.21593C11.9662 5.18318 11.9929 5.15647 12.0257 5.15647V4.65647C11.7168 4.65647 11.4662 4.90704 11.4662 5.21593H11.9662ZM11.9662 11.1494V5.21593H11.4662V11.1494H11.9662ZM11.9805 11.1881C11.9709 11.1764 11.9662 11.1624 11.9662 11.1494H11.4662C11.4662 11.28 11.5123 11.4059 11.5943 11.5056L11.9805 11.1881ZM14.9365 14.7585L11.98 11.1874L11.5948 11.5063L14.5514 15.0774L14.9365 14.7585Z" fill="#8190AE" mask="url(#path-1-outside-1)"/>
</svg>
