<svg width="24" height="24" viewBox="0 0 24 24" fill="none" xmlns="http://www.w3.org/2000/svg">
<path d="M21.9266 11.378V10.9374H22.7819C22.9966 10.9374 23.1706 10.7633 23.1706 10.5486V9.27865H23.6112C23.8259 9.27865 24 9.10458 24 8.88988V7.64582C24 7.50633 23.9253 7.37746 23.8041 7.30826L12.1929 0.673271C12.0733 0.605003 11.9266 0.605003 11.8071 0.673271L0.195888 7.30826C0.0747473 7.37746 0 7.50627 0 7.64582V8.88988C0 9.10458 0.174065 9.27865 0.388769 9.27865H0.829374V10.5486C0.829374 10.7633 1.00344 10.9374 1.21814 10.9374H2.07343V11.378C2.07343 11.68 2.24112 11.9434 2.48812 12.0806V19.283H1.21814C1.00344 19.283 0.829374 19.457 0.829374 19.6717V20.9417H0.388769C0.174065 20.9417 0 21.1158 0 21.3305V22.9892C0 23.2039 0.174065 23.378 0.388769 23.378H23.6112C23.8259 23.378 24 23.2039 24 22.9892V21.3305C24 21.1158 23.8259 20.9417 23.6112 20.9417H23.1706V19.6717C23.1706 19.457 22.9966 19.283 22.7819 19.283H21.5119V12.0806C21.7589 11.9434 21.9266 11.68 21.9266 11.378ZM21.149 11.378C21.149 11.3923 21.1374 11.4039 21.1231 11.4039H19.4644C19.4501 11.4039 19.4384 11.3923 19.4384 11.378V10.9374H21.149V11.378ZM17.365 19.283V12.0806C17.612 11.9434 17.7797 11.68 17.7797 11.378V10.9374H18.6609V11.378C18.6609 11.68 18.8286 11.9434 19.0756 12.0806V19.283H17.365ZM15.7063 19.283V12.1815H16.5875V19.283H15.7063ZM13.2181 19.283V12.0806C13.4651 11.9434 13.6328 11.68 13.6328 11.378V10.9374H14.514V11.378C14.514 11.68 14.6817 11.9434 14.9287 12.0806V19.283H13.2181ZM11.5594 19.283V12.1815H12.4406V19.283H11.5594ZM9.07127 19.283V12.0806C9.31827 11.9434 9.48596 11.68 9.48596 11.378V10.9374H10.3672V11.378C10.3672 11.68 10.5349 11.9434 10.7819 12.0806V19.283H9.07127ZM7.41253 19.283V12.1815H8.29374V19.283H7.41253ZM4.92441 19.283V12.0806C5.1714 11.9434 5.33909 11.68 5.33909 11.378V10.9374H6.2203V11.378C6.2203 11.68 6.38799 11.9434 6.63499 12.0806V19.283H4.92441ZM8.70842 10.9374V11.378C8.70842 11.3923 8.69681 11.4039 8.68251 11.4039H7.02376C7.00945 11.4039 6.99784 11.3923 6.99784 11.378V10.9374H8.70842ZM12.8553 10.9374V11.378C12.8553 11.3923 12.8437 11.4039 12.8294 11.4039H11.1706C11.1563 11.4039 11.1447 11.3923 11.1447 11.378V10.9374H12.8553ZM17.0022 10.9374V11.378C17.0022 11.3923 16.9905 11.4039 16.9762 11.4039H15.3175C15.3032 11.4039 15.2916 11.3923 15.2916 11.378V10.9374H17.0022ZM0.777538 7.87141L12 1.45858L23.2225 7.87141V8.50111H0.777538V7.87141ZM1.60691 9.27865H22.3931V10.1599H1.60691V9.27865ZM4.56155 10.9374V11.378C4.56155 11.3923 4.54994 11.4039 4.53564 11.4039H2.87689C2.86258 11.4039 2.85097 11.3923 2.85097 11.378V10.9374H4.56155ZM3.26566 12.1815H4.14687V19.283H3.26566V12.1815ZM23.2225 22.6005H0.777538V21.7193H23.2225V22.6005ZM22.3931 20.9417H1.60691V20.0605H22.3931V20.9417ZM19.8531 19.283V12.1815H20.7343V19.283H19.8531Z" fill="white"/>
</svg>
