<svg width="24" height="24" viewBox="0 0 24 24" fill="none" xmlns="http://www.w3.org/2000/svg">
<path d="M22.8567 1.14288C21.332 -0.380959 18.8521 -0.380959 17.3273 1.14288L1.66241 16.8078C1.65502 16.8152 1.65068 16.8243 1.64416 16.8321C1.63504 16.8426 1.62722 16.8539 1.61897 16.8652C1.59595 16.8973 1.57814 16.9316 1.56467 16.969C1.56076 16.9803 1.55511 16.9903 1.55207 17.0016C1.55077 17.0059 1.54816 17.0102 1.54686 17.0146L0.0112941 23.4653C0.00434389 23.4944 0.00260633 23.5239 0.00173756 23.553C0.00173756 23.5587 0 23.5639 0 23.5695C0.000434389 23.619 0.0112941 23.6673 0.0282353 23.7137C0.0321448 23.7246 0.0364887 23.7342 0.041267 23.7446C0.062552 23.7911 0.0890498 23.8358 0.126407 23.8732C0.167674 23.9144 0.216326 23.9461 0.268887 23.9679C0.321448 23.9896 0.377484 24.0004 0.43352 24.0004C0.466968 24.0004 0.500851 23.9965 0.533864 23.9887L6.98454 22.4531C6.99627 22.4505 7.0067 22.444 7.01799 22.4401C7.03276 22.4353 7.04666 22.4297 7.06099 22.4232C7.09227 22.4088 7.12138 22.391 7.14831 22.3697C7.15873 22.3615 7.16959 22.3554 7.17958 22.3463C7.18306 22.3428 7.1874 22.3411 7.19088 22.3376L22.8563 6.67222C24.381 5.14751 24.381 2.66715 22.8567 1.14288ZM22.2425 1.7571C23.3232 2.8383 23.4153 4.53589 22.5248 5.72612L18.2734 1.47475C19.4641 0.584253 21.1617 0.676344 22.2425 1.7571ZM20.0922 8.20778L15.7918 3.90733L16.406 3.2931L20.7065 7.59356L20.0922 8.20778ZM2.155 21.8446C1.98516 21.6747 1.71062 21.6747 1.54078 21.8446L1.21195 22.1734L2.32138 17.5133L4.24224 17.3L3.99508 19.5249C3.99334 19.5414 3.99942 19.5566 3.99942 19.5727C3.99942 19.5892 3.99334 19.604 3.99508 19.6205C3.99681 19.6348 4.0042 19.6466 4.00724 19.6605C4.01245 19.6856 4.01984 19.7087 4.02896 19.7321C4.04025 19.7604 4.05372 19.786 4.07023 19.8108C4.08369 19.8307 4.09716 19.8485 4.11367 19.8659C4.13452 19.8881 4.1571 19.9068 4.18186 19.9241C4.20141 19.9376 4.22009 19.9502 4.24181 19.9606C4.27048 19.9741 4.30045 19.9819 4.33173 19.9893C4.34824 19.9932 4.3617 20.0023 4.37864 20.0045C4.39428 20.0062 4.40992 20.0071 4.42599 20.0071H4.42642H4.42686H4.42729H4.42773C4.44337 20.0071 4.45944 20.0062 4.47508 20.0045L6.70002 19.7573L6.48673 21.6782L1.82617 22.7876L2.155 22.4588C2.32442 22.2894 2.32442 22.0144 2.155 21.8446ZM7.60659 19.4645L17.3273 9.74335C17.4972 9.5735 17.4972 9.29897 17.3273 9.12912C17.1575 8.95928 16.883 8.95928 16.7131 9.12912L6.99236 18.8503L4.91902 19.0805L5.14925 17.0072L14.8709 7.28644C15.0407 7.1166 15.0407 6.84206 14.8709 6.67222C14.701 6.50237 14.4265 6.50237 14.2567 6.67222L4.53502 16.393L3.15236 16.5468L15.1776 4.52156L19.478 8.82201L7.45281 20.8472L7.60659 19.4645ZM21.3207 6.97933L17.0202 2.67888L17.6349 2.06422L21.9353 6.36467L21.3207 6.97933Z" fill="#4F82E3"/>
</svg>
