<svg width="21" height="21" viewBox="0 0 21 21" fill="none" xmlns="http://www.w3.org/2000/svg">
<path fill-rule="evenodd" clip-rule="evenodd" d="M19.1331 8.16228C19.1331 10.6537 19.1321 13.1451 19.13 15.6366C19.13 15.7853 19.1775 15.8476 19.3063 15.8992C20.3267 16.3069 21.0142 17.3488 20.9998 18.451C20.9854 19.5806 20.0326 20.7389 18.9378 20.9598C17.6676 21.2154 16.3114 20.2223 16.0433 18.8427C15.8154 17.6688 16.5063 16.397 17.6528 15.9185C17.8357 15.8418 17.8711 15.7464 17.8711 15.5616C17.8667 10.6402 17.8659 5.71878 17.8687 0.797387C17.8637 0.688709 17.8727 0.579814 17.8956 0.473701C17.9812 0.150424 18.2807 -0.0409194 18.6033 0.00742868C18.9071 0.0529087 19.1335 0.3389 19.1335 0.687989V6.4832V8.16309L19.1331 8.16228ZM19.7338 18.3731C19.7338 17.582 19.2592 17.0743 18.513 17.0702C17.7493 17.0665 17.2727 17.5619 17.2661 18.3654C17.2595 19.159 17.747 19.6716 18.5052 19.6695C19.2506 19.6671 19.7327 19.1586 19.7338 18.3731ZM9.87218 12.8301C9.87218 10.3578 9.87334 7.88517 9.87567 5.41228C9.87567 5.24138 9.8396 5.15778 9.67596 5.08442C8.78404 4.68197 8.21012 3.98403 8.03329 2.96316C7.95411 2.51536 8.01709 2.05247 8.21244 1.64639C8.70416 0.613626 9.46384 -0.0384075 10.595 0.00175545C11.6009 0.0370005 12.3083 0.636986 12.7542 1.56442C13.2754 2.64759 12.9481 3.91764 11.9581 4.70656C11.7604 4.85955 11.5465 4.98748 11.3206 5.0877C11.1779 5.15286 11.1313 5.22499 11.1317 5.38564C11.1371 7.48285 11.1384 9.57966 11.1356 11.6761V20.3021C11.1356 20.6574 10.9169 20.9394 10.6136 20.9894C10.4657 21.0178 10.3131 20.9888 10.1838 20.9078C10.0545 20.8268 9.95716 20.6992 9.90979 20.5484C9.88134 20.4369 9.86956 20.3215 9.87489 20.2062C9.87231 17.7478 9.8714 15.2891 9.87218 12.8301ZM10.5027 1.32426C9.74343 1.32795 9.26955 1.83327 9.27421 2.63571C9.27886 3.43815 9.76554 3.93199 10.524 3.92338C11.2674 3.91477 11.7398 3.4029 11.7336 2.61194C11.7274 1.82097 11.2473 1.32017 10.5027 1.32426ZM3.12958 7.76135C3.1323 6.58669 3.1323 5.41286 3.1323 4.23902H3.13191C3.13398 3.08566 3.13398 1.93231 3.13191 0.77895C3.13578 0.677115 3.12598 0.575214 3.10281 0.476276C3.0597 0.320495 2.96386 0.186863 2.83353 0.10078C2.70319 0.0146973 2.54743 -0.0178362 2.39586 0.00936328C2.09205 0.0572833 1.87089 0.341117 1.87089 0.692121C1.86831 3.04034 1.86934 5.38855 1.874 7.73677C1.87438 7.89732 1.83054 7.97432 1.68465 8.03453C1.08479 8.28027 0.63044 8.71401 0.312664 9.30421C0.0523129 9.78873 -0.0637006 10.3105 0.0348526 10.8606C0.216051 11.8796 0.798058 12.5697 1.69047 12.9695C1.82278 13.0285 1.87438 13.0887 1.87438 13.2463C1.86973 14.7208 1.86973 16.1953 1.86973 17.6697C1.86973 17.8916 1.86958 18.1135 1.86944 18.3354C1.869 19.001 1.86856 19.6666 1.87206 20.3319C1.874 20.7239 2.14987 21.0036 2.51149 21C2.87311 20.9963 3.1323 20.701 3.1323 20.2914C3.13462 17.9506 3.13372 15.6097 3.12958 13.2689C3.12919 13.1116 3.17692 13.044 3.31233 12.9662C3.32273 12.9603 3.33314 12.9543 3.34356 12.9484C3.64356 12.7771 3.95327 12.6002 4.19776 12.3572C4.79917 11.7592 5.11461 11.0138 4.96174 10.1279C4.78597 9.10679 4.19388 8.42281 3.2972 8.02962C3.16411 7.97105 3.12958 7.90265 3.12958 7.76135ZM3.73176 10.5092C3.73176 11.3099 3.28672 11.7633 2.50256 11.7633C1.71647 11.7625 1.27298 11.3168 1.27026 10.5141C1.26754 9.71132 1.74169 9.2055 2.4983 9.20427C3.25491 9.20304 3.73176 9.70845 3.73176 10.5092Z" fill="#4F82E3"/>
</svg>
