<svg width="24" height="23" viewBox="0 0 24 23" fill="none" xmlns="http://www.w3.org/2000/svg">
<g clip-path="url(#clip0)">
<path d="M17.1612 10.1132C17.049 9.83453 16.7279 9.69806 16.444 9.80812C16.1601 9.91831 16.021 10.2336 16.1332 10.5123C16.4141 11.2097 16.5564 11.9468 16.5564 12.7031C16.5564 15.9887 13.8336 18.6618 10.4867 18.6618C7.13959 18.6618 4.41642 15.9887 4.41642 12.7031C4.41642 9.41752 7.13959 6.74445 10.4867 6.74445C11.2599 6.74445 12.012 6.8851 12.7222 7.16249C13.0057 7.2734 13.3272 7.13733 13.4401 6.85895C13.553 6.58048 13.4145 6.26495 13.1309 6.15417C12.2901 5.82571 11.4004 5.65918 10.4868 5.65918C6.53008 5.65918 3.31097 8.81903 3.31097 12.7031C3.31097 16.5871 6.52994 19.747 10.4867 19.747C14.4431 19.747 17.6619 16.5871 17.6619 12.7031C17.6619 11.8096 17.4934 10.9383 17.1612 10.1132Z" fill="#4F82E3"/>
<path d="M20.569 9.86492C20.485 9.5768 20.1792 9.41027 19.8855 9.49252C19.592 9.575 19.4222 9.87539 19.5062 10.1635C19.7458 10.9856 19.8673 11.84 19.8673 12.7025C19.8673 17.7807 15.6592 21.9122 10.4867 21.9122C5.31391 21.9122 1.10549 17.7807 1.10549 12.7025C1.10549 7.62436 5.31386 3.49303 10.4867 3.49303C11.3674 3.49303 12.2391 3.61283 13.0775 3.84917C13.3709 3.93182 13.6771 3.76543 13.7613 3.47735C13.8455 3.18927 13.676 2.88874 13.3825 2.80608C12.445 2.54176 11.4706 2.40771 10.4867 2.40771C4.70431 2.40776 0 7.026 0 12.7026C0 18.3792 4.70431 22.9975 10.4867 22.9975C16.2687 22.9975 20.9728 18.3792 20.9728 12.7026C20.9728 11.7389 20.8369 10.7842 20.569 9.86492Z" fill="#4F82E3"/>
<path d="M14.3353 12.3715C14.3082 12.073 14.0395 11.8538 13.7356 11.8792C13.4315 11.9059 13.207 12.1695 13.2342 12.468C13.2412 12.5452 13.2447 12.6243 13.2447 12.7028C13.2447 14.1959 12.0074 15.4105 10.4866 15.4105C8.96538 15.4105 7.72778 14.1958 7.72778 12.7028C7.72787 11.2094 8.96542 9.99449 10.4866 9.99449C10.5716 9.99449 10.6548 9.99813 10.734 10.0053C11.0383 10.0327 11.3071 9.81319 11.3352 9.51473C11.3632 9.21631 11.1395 8.95213 10.8355 8.92454C10.7228 8.91435 10.6054 8.90918 10.4867 8.90918C8.35591 8.90918 6.62238 10.6109 6.62238 12.7027C6.62238 14.7942 8.35591 16.4957 10.4867 16.4957C12.6171 16.4957 14.3503 14.7942 14.3503 12.7027C14.3503 12.5922 14.3452 12.4806 14.3353 12.3715Z" fill="#4F82E3"/>
<path d="M23.3441 3.65065C23.1724 3.24356 22.7713 2.9805 22.3225 2.9805H20.3952V1.08848C20.3952 0.647799 20.1272 0.254149 19.7125 0.085557C19.298 -0.0829899 18.8252 0.0094144 18.5079 0.320903L15.2876 3.48237C14.9745 3.78968 14.8021 4.19838 14.8021 4.63318V7.70381L10.31 12.1138C10.0941 12.3257 10.0941 12.6693 10.31 12.8812C10.4179 12.9872 10.5593 13.0402 10.7008 13.0402C10.8422 13.0402 10.9837 12.9872 11.0916 12.8812L15.5838 8.47121H18.7117C19.1546 8.47121 19.571 8.30195 19.8839 7.99468L23.1043 4.83313C23.4217 4.52159 23.5158 4.0575 23.3441 3.65065ZM15.9076 4.63313C15.9077 4.48826 15.9651 4.35206 16.0693 4.24977L19.2897 1.0888V3.29841L15.9076 6.61864V4.63313H15.9076ZM19.1023 7.22724C18.9996 7.32804 18.8572 7.38595 18.7117 7.38595H16.6894L20.0714 4.06581L22.3224 4.06608L19.1023 7.22724Z" fill="#4F82E3"/>
</g>
<defs>
<clipPath id="clip0">
<rect width="23.4286" height="23" fill="white"/>
</clipPath>
</defs>
</svg>
