<svg width="23" height="22" viewBox="0 0 23 22" fill="none" xmlns="http://www.w3.org/2000/svg">
<g clip-path="url(#clip0)">
<path d="M19.7107 21.1672V18.1215C19.7107 14.3525 17.1939 11.1496 13.73 10.0445C15.3956 9.12363 16.5259 7.37168 16.5259 5.36367C16.5259 2.40781 14.0732 0 11.0622 0C8.05128 0 5.59859 2.40781 5.59859 5.36367C5.59859 7.37168 6.72884 9.12363 8.39447 10.0445C4.92593 11.1496 2.41376 14.3525 2.41376 18.1215V21.1672C2.41376 21.4727 2.66543 21.7197 2.97659 21.7197H19.157C19.459 21.7152 19.7107 21.4727 19.7107 21.1672ZM6.71511 5.36367C6.71511 3.01426 8.66445 1.10059 11.0576 1.10059C13.4508 1.10059 15.4002 3.01426 15.4002 5.36367C15.4002 7.71309 13.4508 9.62676 11.0576 9.62676C8.66445 9.62676 6.71511 7.71309 6.71511 5.36367ZM18.5896 20.6146H3.5257V18.117C3.5257 14.0426 6.90272 10.7229 11.0576 10.7229C15.2126 10.7229 18.5896 14.0381 18.5896 18.117V20.6146Z" fill="#4F82E3"/>
</g>
<defs>
<clipPath id="clip0">
<rect width="22.1245" height="21.7197" fill="white"/>
</clipPath>
</defs>
</svg>
